<?xml version="1.0" standalone="no"?>
<!DOCTYPE svg PUBLIC "-//W3C//DTD SVG 20010904//EN"
 "http://www.w3.org/TR/2001/REC-SVG-20010904/DTD/svg10.dtd">
<svg version="1.0" xmlns="http://www.w3.org/2000/svg"
 width="280.000000pt" height="72.000000pt" viewBox="0 0 280.000000 72.000000"
 preserveAspectRatio="xMidYMid meet">

<g transform="translate(0.000000,72.000000) scale(0.100000,-0.100000)"
fill="#000000" stroke="none">
<path d="M185 554 c-165 -90 -166 -301 -1 -386 59 -30 151 -22 208 18 123 86
123 262 0 348 -36 25 -54 31 -110 33 -48 2 -76 -1 -97 -13z m169 -57 c144 -82
70 -310 -96 -295 -52 5 -89 27 -122 72 -29 39 -29 133 0 173 55 74 142 94 218
50z"/>
<path d="M210 485 c0 -8 -5 -15 -11 -15 -5 0 -17 -16 -25 -35 -17 -40 -18 -55
-4 -55 6 0 9 3 9 8 -4 26 4 32 12 7 6 -20 4 -45 -6 -79 -19 -62 -19 -66 1 -66
8 0 13 4 10 8 -3 5 -1 22 4 38 l8 29 1 -32 c1 -18 5 -33 10 -33 6 0 8 21 6 48
-5 68 4 115 20 102 8 -7 11 -36 9 -93 -2 -57 0 -72 5 -47 6 24 9 28 10 13 0
-13 6 -23 12 -23 8 0 10 14 6 45 -4 25 -3 45 2 45 5 0 -5 28 -23 63 -18 34
-31 68 -28 75 2 6 -3 12 -12 12 -9 0 -16 -7 -16 -15z"/>
<path d="M304 474 c4 -9 1 -23 -5 -31 -9 -10 -9 -26 1 -67 7 -30 10 -59 6 -65
-4 -6 0 -14 9 -17 10 -4 15 -14 12 -25 -3 -11 -1 -19 4 -19 5 0 9 11 9 25 0
30 16 33 23 5 3 -11 11 -20 17 -20 9 0 9 4 2 13 -5 6 -13 35 -17 62 -4 28 -11
58 -17 68 -13 25 -5 31 22 17 12 -6 24 -9 27 -6 3 3 -5 10 -18 15 -13 5 -33
21 -43 35 -21 29 -42 35 -32 10z m13 -76 c-3 -8 -6 -5 -6 6 -1 11 2 17 5 13 3
-3 4 -12 1 -19z"/>
<path d="M1500 541 c-13 -25 -13 -34 0 -26 16 10 32 45 21 45 -6 0 -15 -9 -21
-19z"/>
<path d="M611 462 c-31 -62 -38 -82 -26 -82 9 0 21 11 27 25 8 18 19 25 40 25
21 0 32 -7 40 -25 10 -23 39 -36 38 -17 -1 4 -18 41 -39 82 l-39 74 -41 -82z
m49 3 c0 -8 -4 -15 -10 -15 -5 0 -10 7 -10 15 0 8 5 15 10 15 6 0 10 -7 10
-15z"/>
<path d="M1751 479 c-7 -35 -14 -72 -17 -81 -3 -12 0 -18 9 -18 10 0 18 15 22
42 l7 42 23 -44 23 -45 18 38 c21 45 34 48 34 8 0 -28 15 -49 27 -38 7 8 -19
147 -28 147 -4 0 -15 -20 -26 -45 -10 -25 -20 -45 -23 -45 -3 0 -17 23 -31 52
l-26 52 -12 -65z"/>
<path d="M2350 460 c0 -47 4 -80 10 -80 6 0 10 33 10 80 0 47 -4 80 -10 80 -6
0 -10 -33 -10 -80z"/>
<path d="M1090 520 c0 -5 5 -10 10 -10 6 0 10 5 10 10 0 6 -4 10 -10 10 -5 0
-10 -4 -10 -10z"/>
<path d="M1380 520 c0 -5 5 -10 10 -10 6 0 10 5 10 10 0 6 -4 10 -10 10 -5 0
-10 -4 -10 -10z"/>
<path d="M2048 511 c-17 -24 -15 -77 4 -113 9 -19 48 -25 48 -8 0 6 -7 10 -15
10 -10 0 -15 11 -15 35 0 24 5 35 15 35 19 0 20 16 1 27 -7 4 -15 14 -18 22
-3 11 -8 9 -20 -8z"/>
<path d="M753 493 c-24 -9 -15 -53 12 -63 34 -13 33 -34 -1 -26 -19 5 -25 3
-22 -6 7 -21 55 -22 67 -1 11 22 5 35 -27 52 -27 14 -21 31 8 24 24 -6 27 12
4 21 -18 7 -23 7 -41 -1z"/>
<path d="M850 480 c-39 -39 -14 -100 42 -100 53 0 79 74 36 104 -30 21 -54 20
-78 -4z m64 -16 c27 -27 12 -64 -26 -64 -15 0 -38 27 -38 44 0 8 31 36 40 36
5 0 16 -7 24 -16z"/>
<path d="M992 484 c-26 -18 -30 -65 -6 -89 18 -17 82 -17 75 0 -2 6 -13 9 -23
7 -22 -4 -48 14 -48 34 0 24 30 44 56 38 26 -7 34 10 8 20 -24 9 -38 7 -62
-10z"/>
<path d="M1097 493 c-4 -3 -7 -31 -7 -60 0 -70 24 -68 28 2 3 46 -7 73 -21 58z"/>
<path d="M1157 493 c-14 -13 -7 -24 12 -18 10 3 23 -1 30 -8 9 -12 7 -13 -12
-10 -28 6 -50 -18 -45 -49 3 -20 9 -23 46 -24 l42 -2 0 47 c0 26 -5 52 -12 59
-13 13 -50 16 -61 5z m51 -70 c5 -17 -26 -29 -40 -15 -6 6 -7 15 -3 22 9 14
37 9 43 -7z"/>
<path d="M1270 480 c-39 -39 -11 -103 43 -98 43 4 47 26 5 25 -27 -2 -34 2
-36 21 -5 32 15 53 44 46 27 -7 33 10 8 20 -27 10 -43 7 -64 -14z"/>
<path d="M1377 493 c-4 -3 -7 -30 -7 -60 0 -40 4 -53 15 -53 12 0 15 13 15 60
0 55 -6 70 -23 53z"/>
<path d="M1440 480 c-24 -24 -25 -48 -4 -78 18 -26 65 -30 88 -6 24 23 20 70
-6 88 -30 21 -54 20 -78 -4z m61 -10 c36 -20 13 -76 -28 -68 -22 4 -29 43 -13
64 15 17 16 17 41 4z"/>
<path d="M1565 492 c-3 -3 -5 -29 -5 -59 0 -40 4 -53 15 -53 11 0 15 12 15 44
0 28 5 46 14 49 21 8 26 -2 26 -50 0 -32 4 -43 15 -43 19 0 21 92 2 108 -13
11 -72 13 -82 4z"/>
<path d="M1922 443 l3 -58 43 -1 42 -2 0 59 c0 70 -18 79 -22 12 -3 -40 -6
-48 -23 -48 -17 0 -20 8 -23 48 -2 26 -8 47 -13 47 -6 0 -9 -24 -7 -57z"/>
<path d="M2117 493 c-11 -10 -8 -72 3 -94 8 -14 21 -19 50 -19 l40 0 0 61 c0
72 -22 79 -30 8 -4 -31 -10 -45 -22 -47 -15 -3 -18 4 -18 47 0 47 -7 61 -23
44z"/>
<path d="M2247 493 c-14 -13 -6 -24 13 -18 11 3 25 3 32 -2 9 -5 3 -9 -16 -13
-65 -11 -59 -72 8 -78 l36 -3 0 48 c0 27 -5 54 -12 61 -13 13 -50 16 -61 5z
m51 -70 c5 -17 -26 -29 -40 -15 -6 6 -7 15 -3 22 9 14 37 9 43 -7z"/>
<path d="M1790 330 c-7 -13 -7 -20 -1 -20 6 0 15 9 21 20 7 13 7 20 1 20 -6 0
-15 -9 -21 -20z"/>
<path d="M688 334 c-5 -4 -8 -17 -8 -29 0 -18 -5 -21 -30 -17 -60 9 -92 -56
-50 -98 22 -22 55 -26 66 -9 4 8 9 7 15 -2 6 -11 9 -10 14 2 8 22 2 162 -7
153z m-18 -79 c20 -24 3 -57 -28 -53 -27 3 -39 26 -28 54 7 18 40 18 56 -1z"/>
<path d="M2498 334 c-5 -4 -8 -43 -8 -88 0 -56 3 -77 10 -70 6 6 10 44 8 88
-2 43 -6 74 -10 70z"/>
<path d="M910 256 c0 -61 3 -76 15 -76 9 0 15 9 15 25 0 18 5 25 18 25 11 0
27 9 38 21 17 19 17 23 3 47 -11 21 -24 28 -52 30 l-37 3 0 -75z m67 28 c3 -9
0 -20 -8 -25 -23 -14 -29 -11 -29 16 0 28 27 35 37 9z"/>
<path d="M1680 321 c0 -6 5 -13 10 -16 6 -3 10 1 10 9 0 9 -4 16 -10 16 -5 0
-10 -4 -10 -9z"/>
<path d="M2050 250 c0 -66 2 -78 15 -74 9 4 15 19 15 35 0 22 5 29 20 29 11 0
20 5 20 11 0 6 -9 13 -20 16 -29 8 -25 33 5 33 16 0 25 6 25 15 0 11 -11 15
-40 15 l-40 0 0 -80z"/>
<path d="M2440 320 c0 -5 5 -10 10 -10 6 0 10 5 10 10 0 6 -4 10 -10 10 -5 0
-10 -4 -10 -10z"/>
<path d="M2542 321 c2 -7 7 -12 11 -12 12 1 9 15 -3 20 -7 2 -11 -2 -8 -8z"/>
<path d="M1252 304 c-11 -20 -4 -104 11 -121 13 -18 37 -16 37 2 0 8 -4 15
-10 15 -15 0 -12 67 3 74 10 5 10 7 0 12 -7 3 -13 12 -13 20 0 19 -17 18 -28
-2z"/>
<path d="M734 265 c-31 -47 21 -110 71 -87 37 17 30 32 -10 25 -45 -7 -44 6 1
35 29 19 33 26 24 38 -20 23 -67 17 -86 -11z m42 -10 c-21 -16 -32 -13 -21 4
3 6 14 11 23 11 15 -1 15 -2 -2 -15z"/>
<path d="M1030 228 c0 -37 4 -57 10 -53 6 3 10 22 10 41 0 23 6 38 20 46 28
18 25 27 -10 26 -30 -1 -30 -1 -30 -60z"/>
<path d="M1114 265 c-19 -30 -11 -60 22 -82 31 -20 69 -6 86 31 28 62 -70 109
-108 51z m81 -30 c0 -27 -3 -30 -30 -30 -21 0 -31 5 -33 18 -6 33 6 49 35 45
24 -3 28 -8 28 -33z"/>
<path d="M1324 265 c-31 -47 21 -110 71 -87 37 17 30 32 -10 25 -45 -7 -44 6
1 35 29 19 33 26 24 38 -20 23 -67 17 -86 -11z m43 -12 c-9 -9 -19 -14 -23
-11 -10 10 6 28 24 28 15 0 15 -1 -1 -17z"/>
<path d="M1456 275 c-41 -42 1 -115 59 -101 37 9 31 26 -9 26 -26 0 -36 5 -41
20 -9 27 12 52 41 48 13 -2 24 2 26 7 5 17 -58 17 -76 0z"/>
<path d="M1572 278 c-6 -6 -12 -27 -12 -45 0 -38 36 -69 70 -58 30 9 24 25 -9
25 -21 0 -32 6 -36 20 -9 27 12 52 41 48 13 -2 24 2 26 7 4 15 -65 18 -80 3z"/>
<path d="M1680 229 c0 -37 4 -58 10 -54 6 3 10 31 10 61 0 30 -4 54 -10 54 -6
0 -10 -27 -10 -61z"/>
<path d="M1742 278 c-24 -30 -18 -74 13 -94 21 -14 30 -14 55 -4 62 26 43 110
-24 110 -18 0 -38 -6 -44 -12z m73 -43 c0 -27 -3 -30 -30 -30 -21 0 -31 5 -33
18 -5 25 17 49 42 45 16 -2 21 -10 21 -33z"/>
<path d="M1870 230 c0 -38 4 -59 10 -55 6 3 10 21 10 38 0 41 14 62 34 54 12
-5 16 -20 16 -54 0 -33 3 -44 11 -36 5 5 9 32 7 59 l-3 49 -42 3 -43 3 0 -61z"/>
<path d="M2150 281 c0 -6 11 -11 24 -11 38 0 41 -18 4 -22 -27 -2 -34 -8 -36
-30 -4 -32 21 -49 61 -41 27 5 28 8 25 57 l-3 51 -37 3 c-22 2 -38 -1 -38 -7z
m55 -66 c0 -5 -10 -11 -22 -13 -16 -2 -23 2 -23 13 0 11 7 15 23 13 12 -2 22
-7 22 -13z"/>
<path d="M2260 234 c0 -64 17 -73 22 -12 2 31 8 44 21 46 14 3 17 -4 17 -42 0
-34 4 -46 15 -46 11 0 15 12 15 46 0 38 3 45 18 42 12 -2 18 -15 20 -46 2 -23
8 -42 13 -42 6 0 9 22 7 53 l-3 52 -72 1 -73 1 0 -53z"/>
<path d="M2440 229 c0 -37 4 -58 10 -54 6 3 10 31 10 61 0 30 -4 54 -10 54 -6
0 -10 -27 -10 -61z"/>
<path d="M2540 235 c0 -42 3 -55 15 -55 12 0 15 13 15 55 0 42 -3 55 -15 55
-12 0 -15 -13 -15 -55z"/>
<path d="M2600 281 c0 -6 11 -11 24 -11 38 0 41 -18 4 -22 -27 -2 -34 -8 -36
-30 -4 -32 21 -49 61 -41 27 5 28 8 25 57 l-3 51 -37 3 c-22 2 -38 -1 -38 -7z
m55 -66 c0 -5 -10 -11 -22 -13 -16 -2 -23 2 -23 13 0 11 7 15 23 13 12 -2 22
-7 22 -13z"/>
<path d="M2710 233 c0 -29 5 -53 10 -53 6 0 10 16 10 35 0 24 6 39 20 47 28
18 25 27 -10 26 -29 -1 -30 -2 -30 -55z"/>
</g>
</svg>
